<svg xmlns="http://www.w3.org/2000/svg" version="1.1" xmlns:xlink="http://www.w3.org/1999/xlink" xmlns:svgjs="http://svgjs.com/svgjs" width="1440" height="560" preserveAspectRatio="none" viewBox="0 0 1440 560"><g mask="url(&quot;#SvgjsMask1000&quot;)" fill="none"><rect width="1440" height="560" x="0" y="0" fill="#0e2a47"></rect><path d="M1426.36 361.38L1414.32 365.72 1407.44 354.92 1395.39 359.26 1388.51 348.45 1376.46 352.79 1369.59 341.99M1428.95 353.81L1416.9 358.15 1410.02 347.35 1397.98 351.69 1391.1 340.88 1379.05 345.22 1372.17 334.42M1431.54 346.24L1419.49 350.58 1412.61 339.78 1400.56 344.12 1393.68 333.31 1381.64 337.65 1374.76 326.85" stroke="#e73635" stroke-width="1.88" stroke-dasharray="4, 4"></path><path d="M372.87 643.3499999999999 L446.3 527.61L478.124535913768 654.019535913768z" fill="#d3b714"></path><rect width="149.44" height="149.44" clip-path="url(&quot;#SvgjsClipPath1001&quot;)" x="1159.42" y="396.54" fill="url(#SvgjsPattern1002)" transform="rotate(66.53, 1234.14, 471.26)"></rect><circle r="76.8078489868464" cx="545.68" cy="471.69" stroke="#e73635" stroke-width="1" stroke-dasharray="3, 2"></circle><rect width="120" height="120" clip-path="url(&quot;#SvgjsClipPath1003&quot;)" x="965.09" y="376.52" fill="url(#SvgjsPattern1004)" transform="rotate(268.65, 1025.09, 436.52)"></rect><rect width="156" height="156" clip-path="url(&quot;#SvgjsClipPath1005&quot;)" x="1351.61" y="341.45" fill="url(#SvgjsPattern1006)" transform="rotate(39.26, 1429.61, 419.45)"></rect><rect width="78.6" height="78.6" clip-path="url(&quot;#SvgjsClipPath1007&quot;)" x="431.55" y="388.36" fill="url(#SvgjsPattern1008)" transform="rotate(265.72, 470.85, 427.66)"></rect><path d="M1172.36 277.55 L1131.34 321.33L1113.4540064654796 261.0440064654797z" stroke="#d3b714" stroke-width="1.08" stroke-dasharray="3, 2"></path><path d="M1034.97 114.68a5.6 5.6 0 1 0-7.86-7.97 5.6 5.6 0 1 0 7.86 7.97zM1023.74 103.29a5.6 5.6 0 1 0-7.87-7.97 5.6 5.6 0 1 0 7.87 7.97zM1012.5 91.9a5.6 5.6 0 1 0-7.86-7.97 5.6 5.6 0 1 0 7.86 7.97zM1001.27 80.51a5.6 5.6 0 1 0-7.87-7.97 5.6 5.6 0 1 0 7.87 7.97zM1068.84 126.23a5.6 5.6 0 1 0-7.87-7.98 5.6 5.6 0 1 0 7.87 7.98zM1057.6 114.84a5.6 5.6 0 1 0-7.86-7.98 5.6 5.6 0 1 0 7.86 7.98zM1046.36 103.45a5.6 5.6 0 1 0-7.86-7.98 5.6 5.6 0 1 0 7.86 7.98zM1035.13 92.06a5.6 5.6 0 1 0-7.87-7.98 5.6 5.6 0 1 0 7.87 7.98z" fill="#d3b714"></path><rect width="260" height="260" clip-path="url(&quot;#SvgjsClipPath1009&quot;)" x="808.15" y="-64.68" fill="url(#SvgjsPattern1010)" transform="rotate(113.97, 938.15, 65.32)"></rect><circle r="46.666666666666664" cx="1035.56" cy="518.65" stroke="#e73635" stroke-width="1.93" stroke-dasharray="2, 2"></circle><path d="M1101.4 299.66a5.6 5.6 0 1 0 11.05-1.83 5.6 5.6 0 1 0-11.05 1.83zM1117.18 297.05a5.6 5.6 0 1 0 11.05-1.84 5.6 5.6 0 1 0-11.05 1.84zM1132.97 294.43a5.6 5.6 0 1 0 11.05-1.84 5.6 5.6 0 1 0-11.05 1.84zM1148.75 291.81a5.6 5.6 0 1 0 11.05-1.84 5.6 5.6 0 1 0-11.05 1.84zM1072.45 320.69a5.6 5.6 0 1 0 11.05-1.84 5.6 5.6 0 1 0-11.05 1.84zM1088.23 318.07a5.6 5.6 0 1 0 11.05-1.84 5.6 5.6 0 1 0-11.05 1.84zM1104.02 315.45a5.6 5.6 0 1 0 11.05-1.83 5.6 5.6 0 1 0-11.05 1.83zM1119.8 312.83a5.6 5.6 0 1 0 11.05-1.83 5.6 5.6 0 1 0-11.05 1.83zM1043.5 341.71a5.6 5.6 0 1 0 11.05-1.84 5.6 5.6 0 1 0-11.05 1.84zM1059.28 339.09a5.6 5.6 0 1 0 11.05-1.83 5.6 5.6 0 1 0-11.05 1.83zM1075.07 336.47a5.6 5.6 0 1 0 11.05-1.83 5.6 5.6 0 1 0-11.05 1.83zM1090.85 333.85a5.6 5.6 0 1 0 11.05-1.83 5.6 5.6 0 1 0-11.05 1.83z" fill="#e73635"></path></g><defs><mask id="SvgjsMask1000"><rect width="1440" height="560" fill="#ffffff"></rect></mask><pattern x="0" y="0" width="9.34" height="9.34" patternUnits="userSpaceOnUse" id="SvgjsPattern1002"><path d="M4.67 1L4.67 8.34M1 4.67L8.34 4.67" stroke="#037b0b" fill="none" stroke-width="1"></path></pattern><clipPath id="SvgjsClipPath1001"><circle r="37.36" cx="1234.14" cy="471.26"></circle></clipPath><pattern x="0" y="0" width="120" height="6" patternUnits="userSpaceOnUse" id="SvgjsPattern1004"><rect width="120" height="3" x="0" y="0" fill="#e73635"></rect><rect width="120" height="3" x="0" y="3" fill="rgba(0, 0, 0, 0)"></rect></pattern><clipPath id="SvgjsClipPath1003"><circle r="30" cx="1025.09" cy="436.52"></circle></clipPath><pattern x="0" y="0" width="6" height="6" patternUnits="userSpaceOnUse" id="SvgjsPattern1006"><path d="M0 6L3 0L6 6" stroke="#037b0b" fill="none"></path></pattern><clipPath id="SvgjsClipPath1005"><circle r="39" cx="1429.61" cy="419.45"></circle></clipPath><pattern x="0" y="0" width="7.86" height="7.86" patternUnits="userSpaceOnUse" id="SvgjsPattern1008"><path d="M3.93 1L3.93 6.86M1 3.93L6.86 3.93" stroke="#e73635" fill="none" stroke-width="1"></path></pattern><clipPath id="SvgjsClipPath1007"><circle r="19.65" cx="470.85" cy="427.66"></circle></clipPath><pattern x="0" y="0" width="10" height="10" patternUnits="userSpaceOnUse" id="SvgjsPattern1010"><path d="M5 1L5 9M1 5L9 5" stroke="#e73635" fill="none" stroke-width="2.57"></path></pattern><clipPath id="SvgjsClipPath1009"><circle r="65" cx="938.15" cy="65.32"></circle></clipPath></defs></svg>